<mxfile host="app.diagrams.net" modified="2021-09-18T07:28:10.020Z" agent="5.0 (Windows NT 10.0; Win64; x64) AppleWebKit/537.36 (KHTML, like Gecko) Chrome/93.0.4577.82 Safari/537.36" etag="meGplX0MJdPs25MafISX" version="15.2.9" type="github">
  <diagram id="qGe1pdqT3W0wRUecUUKz" name="第 1 页">
    <mxGraphModel dx="1572" dy="682" grid="1" gridSize="10" guides="1" tooltips="1" connect="1" arrows="1" fold="1" page="1" pageScale="1" pageWidth="827" pageHeight="1169" background="#EEEEEE" math="0" shadow="0">
      <root>
        <mxCell id="0" />
        <mxCell id="1" parent="0" />
        <mxCell id="OSP_YYPjxVIksi6Q03AP-64" style="edgeStyle=orthogonalEdgeStyle;rounded=0;sketch=0;orthogonalLoop=1;jettySize=auto;html=1;entryX=0;entryY=0.5;entryDx=0;entryDy=0;fontSize=14;fontColor=#1A1A1A;strokeColor=#182E3E;" edge="1" parent="1" source="4i9QKy6Y-gxEZ1XMwqIK-1" target="OSP_YYPjxVIksi6Q03AP-51">
          <mxGeometry relative="1" as="geometry" />
        </mxCell>
        <mxCell id="OSP_YYPjxVIksi6Q03AP-69" style="edgeStyle=orthogonalEdgeStyle;rounded=0;sketch=0;orthogonalLoop=1;jettySize=auto;html=1;entryX=0;entryY=0.5;entryDx=0;entryDy=0;fontSize=14;fontColor=#1A1A1A;strokeColor=#182E3E;" edge="1" parent="1" source="4i9QKy6Y-gxEZ1XMwqIK-1" target="OSP_YYPjxVIksi6Q03AP-54">
          <mxGeometry relative="1" as="geometry" />
        </mxCell>
        <mxCell id="4i9QKy6Y-gxEZ1XMwqIK-1" value="python基础" style="rounded=0;whiteSpace=wrap;html=1;fillColor=#F5AB50;strokeColor=#909090;fontColor=#1A1A1A;fontSize=14;" parent="1" vertex="1">
          <mxGeometry x="90" y="180" width="120" height="60" as="geometry" />
        </mxCell>
        <mxCell id="OSP_YYPjxVIksi6Q03AP-63" style="edgeStyle=orthogonalEdgeStyle;rounded=0;sketch=0;orthogonalLoop=1;jettySize=auto;html=1;fontSize=14;fontColor=#1A1A1A;strokeColor=#182E3E;" edge="1" parent="1" source="4i9QKy6Y-gxEZ1XMwqIK-2" target="OSP_YYPjxVIksi6Q03AP-51">
          <mxGeometry relative="1" as="geometry" />
        </mxCell>
        <mxCell id="OSP_YYPjxVIksi6Q03AP-68" style="edgeStyle=orthogonalEdgeStyle;rounded=0;sketch=0;orthogonalLoop=1;jettySize=auto;html=1;entryX=0;entryY=0.5;entryDx=0;entryDy=0;fontSize=14;fontColor=#1A1A1A;strokeColor=#182E3E;" edge="1" parent="1" source="4i9QKy6Y-gxEZ1XMwqIK-2" target="OSP_YYPjxVIksi6Q03AP-54">
          <mxGeometry relative="1" as="geometry" />
        </mxCell>
        <mxCell id="4i9QKy6Y-gxEZ1XMwqIK-2" value="数据分析及可视化" style="rounded=0;whiteSpace=wrap;html=1;sketch=0;fontColor=#1A1A1A;strokeColor=#909090;fillColor=#F5AB50;fontSize=14;" parent="1" vertex="1">
          <mxGeometry x="90" y="320" width="120" height="60" as="geometry" />
        </mxCell>
        <mxCell id="OSP_YYPjxVIksi6Q03AP-65" style="edgeStyle=orthogonalEdgeStyle;rounded=0;sketch=0;orthogonalLoop=1;jettySize=auto;html=1;fontSize=14;fontColor=#1A1A1A;strokeColor=#182E3E;entryX=0;entryY=0.5;entryDx=0;entryDy=0;" edge="1" parent="1" source="OSP_YYPjxVIksi6Q03AP-1" target="OSP_YYPjxVIksi6Q03AP-54">
          <mxGeometry relative="1" as="geometry">
            <mxPoint x="430" y="520" as="targetPoint" />
          </mxGeometry>
        </mxCell>
        <mxCell id="OSP_YYPjxVIksi6Q03AP-1" value="python办公自动化" style="rounded=0;whiteSpace=wrap;html=1;sketch=0;fontColor=#1A1A1A;strokeColor=#909090;fillColor=#F5AB50;fontSize=14;" vertex="1" parent="1">
          <mxGeometry x="90" y="460" width="120" height="60" as="geometry" />
        </mxCell>
        <mxCell id="OSP_YYPjxVIksi6Q03AP-66" style="edgeStyle=orthogonalEdgeStyle;rounded=0;sketch=0;orthogonalLoop=1;jettySize=auto;html=1;fontSize=14;fontColor=#1A1A1A;strokeColor=#182E3E;" edge="1" parent="1" source="OSP_YYPjxVIksi6Q03AP-2" target="OSP_YYPjxVIksi6Q03AP-54">
          <mxGeometry relative="1" as="geometry" />
        </mxCell>
        <mxCell id="OSP_YYPjxVIksi6Q03AP-67" style="edgeStyle=orthogonalEdgeStyle;rounded=0;sketch=0;orthogonalLoop=1;jettySize=auto;html=1;entryX=0;entryY=0.5;entryDx=0;entryDy=0;fontSize=14;fontColor=#1A1A1A;strokeColor=#182E3E;" edge="1" parent="1" source="OSP_YYPjxVIksi6Q03AP-2" target="OSP_YYPjxVIksi6Q03AP-51">
          <mxGeometry relative="1" as="geometry" />
        </mxCell>
        <mxCell id="OSP_YYPjxVIksi6Q03AP-70" style="edgeStyle=orthogonalEdgeStyle;rounded=0;sketch=0;orthogonalLoop=1;jettySize=auto;html=1;entryX=0;entryY=0.5;entryDx=0;entryDy=0;fontSize=14;fontColor=#1A1A1A;strokeColor=#182E3E;" edge="1" parent="1" source="OSP_YYPjxVIksi6Q03AP-2" target="OSP_YYPjxVIksi6Q03AP-51">
          <mxGeometry relative="1" as="geometry" />
        </mxCell>
        <mxCell id="OSP_YYPjxVIksi6Q03AP-2" value="财务数据案例实训" style="rounded=0;whiteSpace=wrap;html=1;sketch=0;fontColor=#1A1A1A;strokeColor=#909090;fillColor=#F5AB50;fontSize=14;" vertex="1" parent="1">
          <mxGeometry x="90" y="600" width="120" height="60" as="geometry" />
        </mxCell>
        <mxCell id="OSP_YYPjxVIksi6Q03AP-51" value="教&lt;br style=&quot;font-size: 14px;&quot;&gt;师&lt;br style=&quot;font-size: 14px;&quot;&gt;端" style="rounded=0;whiteSpace=wrap;html=1;sketch=0;align=center;verticalAlign=middle;fillColor=#647687;strokeColor=#314354;fontSize=14;fontColor=#ffffff;" vertex="1" parent="1">
          <mxGeometry x="320" y="180" width="40" height="260" as="geometry" />
        </mxCell>
        <mxCell id="OSP_YYPjxVIksi6Q03AP-52" value="&lt;p class=&quot;MsoBodyText&quot;&gt;批量管理学生&lt;span lang=&quot;EN-US&quot;&gt;&lt;/span&gt;&lt;/p&gt;" style="rounded=0;whiteSpace=wrap;html=1;sketch=0;fontSize=14;fontColor=#1A1A1A;strokeColor=#909090;fillColor=#F5AB50;align=center;verticalAlign=middle;" vertex="1" parent="1">
          <mxGeometry x="361" y="180" width="120" height="40" as="geometry" />
        </mxCell>
        <mxCell id="OSP_YYPjxVIksi6Q03AP-53" value="&lt;p class=&quot;MsoBodyText&quot;&gt;教学进度控制&lt;span lang=&quot;EN-US&quot;&gt;&lt;/span&gt;&lt;/p&gt;" style="rounded=0;whiteSpace=wrap;html=1;sketch=0;fontSize=14;fontColor=#1A1A1A;strokeColor=#909090;fillColor=#F5AB50;align=center;verticalAlign=middle;" vertex="1" parent="1">
          <mxGeometry x="361" y="220" width="120" height="40" as="geometry" />
        </mxCell>
        <mxCell id="OSP_YYPjxVIksi6Q03AP-54" value="学&lt;br&gt;生&lt;br&gt;端" style="rounded=0;whiteSpace=wrap;html=1;sketch=0;align=center;verticalAlign=middle;fillColor=#647687;strokeColor=#314354;fontSize=14;fontColor=#ffffff;" vertex="1" parent="1">
          <mxGeometry x="321" y="550" width="40" height="210" as="geometry" />
        </mxCell>
        <mxCell id="OSP_YYPjxVIksi6Q03AP-55" value="闯关式学习" style="rounded=0;whiteSpace=wrap;html=1;sketch=0;fontSize=14;fontColor=#1A1A1A;strokeColor=#909090;fillColor=#F5AB50;align=center;verticalAlign=middle;" vertex="1" parent="1">
          <mxGeometry x="362" y="550" width="120" height="40" as="geometry" />
        </mxCell>
        <mxCell id="OSP_YYPjxVIksi6Q03AP-71" value="" style="rounded=0;whiteSpace=wrap;html=1;sketch=0;fontSize=14;fontColor=#1A1A1A;strokeColor=#909090;fillColor=#F5AB50;align=center;verticalAlign=middle;" vertex="1" parent="1">
          <mxGeometry x="362" y="590" width="120" height="40" as="geometry" />
        </mxCell>
        <mxCell id="OSP_YYPjxVIksi6Q03AP-72" value="&lt;p class=&quot;MsoBodyText&quot;&gt;作业考试管理&lt;span lang=&quot;EN-US&quot;&gt;&lt;/span&gt;&lt;/p&gt;" style="rounded=0;whiteSpace=wrap;html=1;sketch=0;fontSize=14;fontColor=#1A1A1A;strokeColor=#909090;fillColor=#F5AB50;align=center;verticalAlign=middle;" vertex="1" parent="1">
          <mxGeometry x="361" y="260" width="120" height="40" as="geometry" />
        </mxCell>
        <mxCell id="OSP_YYPjxVIksi6Q03AP-73" value="多维成绩分析" style="rounded=0;whiteSpace=wrap;html=1;sketch=0;fontSize=14;fontColor=#1A1A1A;strokeColor=#909090;fillColor=#F5AB50;align=center;verticalAlign=middle;" vertex="1" parent="1">
          <mxGeometry x="361" y="300" width="120" height="40" as="geometry" />
        </mxCell>
        <mxCell id="OSP_YYPjxVIksi6Q03AP-74" value="&lt;p class=&quot;MsoBodyText&quot;&gt;随堂监控&lt;span lang=&quot;EN-US&quot;&gt;&lt;/span&gt;&lt;/p&gt;" style="rounded=0;whiteSpace=wrap;html=1;sketch=0;fontSize=14;fontColor=#1A1A1A;strokeColor=#909090;fillColor=#F5AB50;align=center;verticalAlign=middle;" vertex="1" parent="1">
          <mxGeometry x="361" y="340" width="120" height="40" as="geometry" />
        </mxCell>
      </root>
    </mxGraphModel>
  </diagram>
</mxfile>
